<svg id="Layer_1" data-name="Layer 1" xmlns="http://www.w3.org/2000/svg" viewBox="0 0 358.1 69.05">
  <defs>
    <style>
      .cls-1 {
        fill: #fff;
      }
    </style>
  </defs>
  <title>CW_RV_Outdoors_White_Horz</title>
  <g>
    <path class="cls-1" d="M387.89,89.75A2.19,2.19,0,1,1,390,87.57,2.09,2.09,0,0,1,387.89,89.75Zm0-3.89a1.71,1.71,0,1,0,1.6,1.71A1.61,1.61,0,0,0,387.89,85.86Zm.61,3-.62-1h-.19v1h-.54V86.29h.77a.82.82,0,0,1,.85.81.78.78,0,0,1-.35.64l.56.8Zm-.63-2.07h-.18v.6h.18a.29.29,0,0,0,.32-.29A.3.3,0,0,0,387.87,86.79Z" transform="translate(-45.79 -41.25)"/>
    <g>
      <path class="cls-1" d="M94.32,75.89,91.8,68.83H81.22l-2.48,7.06H71.39L84,41.78h5.39l12.65,34.11Zm-6.75-20a32.22,32.22,0,0,1-1-3.45h-.1a26.52,26.52,0,0,1-1,3.45l-2.32,6.79h6.75Z" transform="translate(-45.79 -41.25)"/>
      <path class="cls-1" d="M133.65,75.89l-1.06-12.47c-.16-2-.3-4.08-.3-6.25h-.1a60.8,60.8,0,0,1-2.73,6.41L123.41,76h-3.12L114.2,63.58c-1-2-1.92-4.19-2.73-6.36h-.1c0,2.23-.15,4.29-.3,6.2l-1,12.47h-7.51L105.32,42h6.35l7,14.22c1,2,2.37,5,3.22,7.22H122c.8-2.23,2-4.89,3.07-7.22L132,42h6.4l2.88,33.85Z" transform="translate(-45.79 -41.25)"/>
      <path class="cls-1" d="M155,62.57h-4.29V75.89h-7.51V42H155c5.54,0,10.39,3.88,10.39,10.24A10,10,0,0,1,155,62.57Zm-1.11-14h-3.18V56.1h3.18a3.8,3.8,0,1,0,0-7.58Z" transform="translate(-45.79 -41.25)"/>
      <path class="cls-1" d="M167.38,75.89V42h7.81V75.89Z" transform="translate(-45.79 -41.25)"/>
      <path class="cls-1" d="M203.57,76.26l-12.5-14.42c-2-2.34-4.28-5.2-6-7.43l-.1.05c.1,2.39.15,5,.15,7.11V75.89h-7.82V42h6.3L194.5,54.67c1.51,1.75,3.78,4.51,5.24,6.47l.1,0c-.1-2-.15-4.19-.15-6.32V42h7.81V76.26Z" transform="translate(-45.79 -41.25)"/>
      <path class="cls-1" d="M226.86,76.69C218,76.69,209,70.53,209,59s9.18-17.72,17.64-17.72A18.2,18.2,0,0,1,236.88,44l-.6,7.22a14.49,14.49,0,0,0-8.82-2.81,10.35,10.35,0,0,0-10.68,10.82,10.07,10.07,0,0,0,10.43,10.5,8.1,8.1,0,0,0,4.38-1V63.9h-5.84V57.59h13V73.18C236,75.47,232.05,76.69,226.86,76.69Z" transform="translate(-45.79 -41.25)"/>
      <path class="cls-1" d="M281,76.11h-5l-4.68-15c-.71-2.28-1.42-4.55-2.12-7.53h-.1c-.7,3-1.42,5.31-2.12,7.53l-4.68,15h-5L246.56,42h7.51l4.19,13.69a53,53,0,0,1,1.7,6.79h.1a66.4,66.4,0,0,1,1.72-6.79L266,42h6.75L277,55.68c.56,1.86,1.16,4.4,1.66,6.84h.11a59.93,59.93,0,0,1,1.71-6.79L284.71,42h7Z" transform="translate(-45.79 -41.25)"/>
      <path class="cls-1" d="M306.62,76.69a17.25,17.25,0,0,1-17.29-17.77,17.31,17.31,0,1,1,34.62,0A17.26,17.26,0,0,1,306.62,76.69Zm0-28.22c-4.84,0-9.38,4.13-9.38,10.45s4.54,10.5,9.38,10.5S316,65.28,316,58.92,311.46,48.47,306.62,48.47Z" transform="translate(-45.79 -41.25)"/>
      <path class="cls-1" d="M345.14,75.89l-8.67-13.32H333.7V75.89h-7.51V42h12c5.5,0,10.39,3.88,10.39,10.24a9.37,9.37,0,0,1-4.94,8.49l10.23,15.12ZM337,48.52H333.7V56.1H337a3.8,3.8,0,1,0,0-7.58Z" transform="translate(-45.79 -41.25)"/>
      <path class="cls-1" d="M354,75.89V42h7.81V68.83h12.9v7.06Z" transform="translate(-45.79 -41.25)"/>
      <path class="cls-1" d="M386.66,75.89H375.82V42h10.84c9.27,0,17.23,6.37,17.23,16.93S395.93,75.89,386.66,75.89Zm-.91-26.79h-2.42V68.83h2.42c5.59,0,10.33-3.28,10.33-9.86S391.34,49.1,385.75,49.1Z" transform="translate(-45.79 -41.25)"/>
      <path class="cls-1" d="M64.48,69.53c-6.09,0-10.78-4.2-10.78-10.56A10.22,10.22,0,0,1,64.23,48.36a13.51,13.51,0,0,1,7.66,2.12l.56-7.16a18.09,18.09,0,0,0-9.12-2.07c-8.42,0-17.54,6-17.54,17.72s9.07,17.72,17.54,17.72A21.29,21.29,0,0,0,69.26,76l3.13-8.44A14,14,0,0,1,64.48,69.53Z" transform="translate(-45.79 -41.25)"/>
    </g>
    <g>
      <path class="cls-1" d="M78.58,109.8,71.51,99.7H69.34v10.1H64.67V85.56h8.09c3.8,0,7.56,2.47,7.56,7.07a6.53,6.53,0,0,1-4,6.15l8,11ZM72,89.55H69.34v6.39H72c1.83,0,3.61-1,3.61-3.2S73.87,89.55,72,89.55Z" transform="translate(-45.79 -41.25)"/>
      <path class="cls-1" d="M98.49,110.07h-3L86.26,85.56h4.93l4.15,11.13c.6,1.64,1.25,3.61,1.82,5.55h.08c.53-1.9,1.17-3.87,1.78-5.55l4.14-11.13h4.56Z" transform="translate(-45.79 -41.25)"/>
      <path class="cls-1" d="M143,109.8l-1.67-1.67A12.62,12.62,0,0,1,134,110.3c-4.86,0-8.09-2.93-8.09-6.73,0-3,1.4-4.9,4.21-6.57-1.78-1.9-2.69-3.69-2.69-5.62,0-3.88,3.11-6.35,6.76-6.35s7.14,2.47,7.14,6.38c0,2.63-1.52,4.75-4.41,6.46l4.45,4.45a17.85,17.85,0,0,0,2.74-5l3,3a18.44,18.44,0,0,1-2.77,4.94l4.52,4.52Zm-10-10c-1.71.91-2.59,2-2.59,3.57,0,1.83,1.67,3.16,3.76,3.16a7.74,7.74,0,0,0,4.22-1.33Zm1.32-11.13a2.65,2.65,0,0,0-2.65,2.58c0,1.29.94,2.36,2.39,3.76,2-1.14,3.11-2.31,3.11-3.57A2.73,2.73,0,0,0,134.28,88.68Z" transform="translate(-45.79 -41.25)"/>
      <path class="cls-1" d="M179.66,110.3c-6.58,0-13-4.83-13-12.65S173.08,85,179.66,85s13,4.83,13,12.62S186.23,110.3,179.66,110.3Zm0-21a8.46,8.46,0,1,0,8.09,8.43A8.13,8.13,0,0,0,179.66,89.29Z" transform="translate(-45.79 -41.25)"/>
      <path class="cls-1" d="M210.21,110.3c-5.74,0-10.22-3.38-10.22-9.12V85.56h4.78v15.2c0,3.23,2,5.36,5.48,5.36s5.47-2.09,5.47-5.32V85.56h4.67v15.62C220.39,106.92,216,110.3,210.21,110.3Z" transform="translate(-45.79 -41.25)"/>
      <path class="cls-1" d="M238.78,89.55V109.8H234V89.55h-7.37v-4h19.52v4Z" transform="translate(-45.79 -41.25)"/>
      <path class="cls-1" d="M260.22,109.8h-7.83V85.56h7.83c6.87,0,13.07,4.45,13.07,12.12S267.09,109.8,260.22,109.8Zm-.61-20.25h-2.47v16.34h2.47c4.82,0,8.81-2.66,8.81-8.17S264.43,89.55,259.61,89.55Z" transform="translate(-45.79 -41.25)"/>
      <path class="cls-1" d="M292.78,110.3c-6.57,0-13-4.83-13-12.65S286.21,85,292.78,85s13,4.83,13,12.62S299.35,110.3,292.78,110.3Zm0-21a8.46,8.46,0,1,0,8.09,8.43A8.13,8.13,0,0,0,292.78,89.29Z" transform="translate(-45.79 -41.25)"/>
      <path class="cls-1" d="M325.23,110.3c-6.57,0-13-4.83-13-12.65S318.66,85,325.23,85s13,4.83,13,12.62S331.81,110.3,325.23,110.3Zm0-21a8.46,8.46,0,0,0,0,16.9,8.46,8.46,0,0,0,0-16.9Z" transform="translate(-45.79 -41.25)"/>
      <path class="cls-1" d="M359.47,109.8,352.4,99.7h-2.16v10.1h-4.68V85.56h8.1c3.8,0,7.56,2.47,7.56,7.07a6.54,6.54,0,0,1-4,6.15l8,11ZM352.9,89.55h-2.66v6.39h2.66c1.82,0,3.61-1,3.61-3.2S354.76,89.55,352.9,89.55Z" transform="translate(-45.79 -41.25)"/>
      <path class="cls-1" d="M376.42,110.07a12.7,12.7,0,0,1-6.46-1.63l-.49-4.68a11.79,11.79,0,0,0,6.84,2.28c2.35,0,3.91-1.18,3.91-3s-1.07-2.81-3.61-3.57c-4.52-1.33-6.73-3.76-6.73-7.33s2.74-6.88,7.91-6.88a11.5,11.5,0,0,1,5.66,1.37l-.91,3.91a9.76,9.76,0,0,0-4.6-1.33c-2.24,0-3.46,1.22-3.46,2.66s1.14,2.32,3.34,3c4.37,1.37,7.19,3.5,7.19,7.79C385,107.11,382,110.07,376.42,110.07Z" transform="translate(-45.79 -41.25)"/>
    </g>
  </g>
</svg>
